<?xml version="1.0" encoding="utf-8"?>
<!-- Generator: Adobe Illustrator 27.6.1, SVG Export Plug-In . SVG Version: 6.00 Build 0)  -->
<svg version="1.1" id="Layer_1" xmlns="http://www.w3.org/2000/svg" xmlns:xlink="http://www.w3.org/1999/xlink" x="0px" y="0px"
	 viewBox="0 0 229.4 303.7" style="enable-background:new 0 0 229.4 303.7;" xml:space="preserve">
<style type="text/css">
	.st0{enable-background:new    ;}
	.st1{fill:#FFFFFF;}
</style>
<g class="st0">
	<path class="st1" d="M37.6,81.8c0,2.3-0.6,4-1.8,5s-3.1,1.6-5.5,1.6c-2.5,0-4.4-0.5-5.6-1.6c-1.2-1-1.8-2.7-1.8-5V28.1
		c0-1.6-1.1-2.5-3.4-2.5c-1.6,0-3.3,0.2-5,0.7s-3.2,1.2-4.6,2c-1.4,0.9-2.5,1.9-3.3,3.1c-0.9,1.2-1.3,2.5-1.3,3.8
		c0,1,0.1,1.7,0.4,2.3s0.5,1,0.9,1.3c0.3,0.3,0.7,0.5,1,0.5c0.3,0.1,0.6,0.1,0.7,0.1c0.7,0,1.4-0.1,1.8-0.4c0.5-0.3,0.9-0.5,1.3-0.8
		c0.4-0.3,0.8-0.6,1.1-0.8c0.3-0.3,0.7-0.4,1.2-0.4c0.4,0,0.7,0.1,1.1,0.2c0.4,0.2,0.8,0.4,1.1,0.8c0.3,0.4,0.6,0.8,0.9,1.4
		c0.2,0.6,0.4,1.3,0.4,2.1c0,1.2-0.2,2.2-0.7,3.1c-0.5,0.9-1.1,1.6-1.8,2.2c-0.7,0.6-1.6,1-2.5,1.3s-1.9,0.4-2.8,0.4
		c-1.4,0-2.7-0.2-3.9-0.7s-2.1-1.2-2.9-2c-0.8-0.9-1.4-1.9-1.8-3.1c-0.6-1-0.8-2.2-0.8-3.5c0-2.5,0.5-4.7,1.4-6.6
		c0.9-1.9,2.2-3.5,3.9-4.9s3.7-2.5,6.1-3.4s5-1.6,7.9-2.2s6-0.9,9.2-1.1s6.7-0.3,10.2-0.3c8.6,0,15,1.6,19.5,4.9s6.6,8,6.6,14.1
		c0,3-0.4,5.6-1.2,8c-0.8,2.3-1.9,4.3-3.2,6s-2.9,3-4.6,4c-1.7,1-3.5,1.8-5.4,2.2s-3.7,0.6-5.6,0.5c-1.9-0.1-3.6-0.4-5.2-1l0.6-1.9
		c2.2,0.7,4.1,0.7,5.5,0.1c1.5-0.6,2.6-1.8,3.4-3.4c0.8-1.6,1.4-3.7,1.7-6.2s0.5-5.3,0.5-8.3c0-2.3-0.2-4.3-0.7-6.2
		c-0.5-1.9-1.1-3.5-2-4.8c-0.8-1.3-1.8-2.3-2.9-3.1c-1.1-0.7-2.3-1.1-3.5-1.1c-1,0-1.7,0.1-2.4,0.4c-0.6,0.3-1.1,0.6-1.4,1.1
		c-0.3,0.4-0.6,0.9-0.7,1.4s-0.2,1-0.2,1.4v53H37.6z"/>
</g>
<g class="st0">
	<path class="st1" d="M66.6,64.7c0-3.9,0.6-7.4,1.7-10.3c1.1-2.9,2.7-5.4,4.6-7.4s4.1-3.5,6.6-4.4s5.2-1.5,7.9-1.5
		c2.8,0,5.4,0.5,7.9,1.4s4.7,2.3,6.6,4.2s3.4,4.3,4.6,7.2c1.1,2.9,1.7,6.3,1.7,10.3c0,3.9-0.6,7.4-1.7,10.4s-2.7,5.6-4.6,7.6
		c-1.9,2.1-4.1,3.6-6.6,4.7s-5.2,1.6-7.9,1.6c-2.8,0-5.4-0.5-7.9-1.5s-4.7-2.5-6.6-4.5s-3.4-4.4-4.6-7.4
		C67.1,72.1,66.6,68.7,66.6,64.7z M94.2,64.3c0-2.4-0.1-4.7-0.2-6.9c-0.2-2.2-0.5-4.2-1-6c-0.5-1.7-1.2-3.1-2.1-4.2
		s-2.1-1.5-3.5-1.5c-1.5,0-2.7,0.5-3.5,1.6c-0.9,1.1-1.6,2.5-2.1,4.3s-0.8,3.8-0.9,6.1c-0.2,2.3-0.2,4.6-0.2,7s0.1,4.7,0.2,7
		s0.5,4.3,0.9,6.1c0.5,1.8,1.2,3.2,2.1,4.3c0.9,1.1,2.1,1.6,3.5,1.6c1.5,0,2.7-0.6,3.5-1.7c0.9-1.1,1.6-2.6,2.1-4.5s0.8-4,1-6.3
		C94.1,69,94.2,66.7,94.2,64.3z"/>
	<path class="st1" d="M113.7,64.7c0-3.9,0.6-7.4,1.7-10.3c1.1-2.9,2.7-5.4,4.6-7.4s4.1-3.5,6.6-4.4s5.2-1.5,7.9-1.5
		c2.8,0,5.4,0.5,7.9,1.4s4.7,2.3,6.6,4.2c1.9,1.9,3.4,4.3,4.6,7.2c1.1,2.9,1.7,6.3,1.7,10.3c0,3.9-0.6,7.4-1.7,10.4
		c-1.1,3-2.7,5.6-4.6,7.6c-1.9,2.1-4.1,3.6-6.6,4.7s-5.2,1.6-7.9,1.6c-2.8,0-5.4-0.5-7.9-1.5s-4.7-2.5-6.6-4.5s-3.4-4.4-4.6-7.4
		C114.3,72.1,113.7,68.7,113.7,64.7z M141.3,64.3c0-2.4-0.1-4.7-0.2-6.9c-0.2-2.2-0.5-4.2-1-6c-0.5-1.7-1.2-3.1-2.1-4.2
		s-2.1-1.5-3.5-1.5c-1.5,0-2.7,0.5-3.5,1.6c-0.9,1.1-1.6,2.5-2.1,4.3s-0.8,3.8-0.9,6.1c-0.2,2.3-0.2,4.6-0.2,7s0.1,4.7,0.2,7
		s0.5,4.3,0.9,6.1c0.5,1.8,1.2,3.2,2.1,4.3c0.9,1.1,2.1,1.6,3.5,1.6c1.5,0,2.7-0.6,3.5-1.7c0.9-1.1,1.6-2.6,2.1-4.5s0.8-4,1-6.3
		C141.2,69,141.3,66.7,141.3,64.3z"/>
	<path class="st1" d="M185.8,20.9c-0.8,0-1.6,0.2-2.4,0.5c-0.7,0.4-1.4,0.9-2,1.7c-0.6,0.8-1,1.8-1.3,3s-0.5,2.7-0.5,4.4v11.1h9.8
		V45h-9.8v35.4c0,4.1-0.5,7.8-1.6,11.3c-1.1,3.4-2.7,6.4-4.8,8.9c-2.2,2.5-4.9,4.5-8.1,5.9c-3.2,1.4-7,2.1-11.3,2.1
		c-1.5,0-3-0.1-4.4-0.4s-2.7-0.6-3.7-1.1s-1.9-1-2.6-1.6c-0.6-0.6-1-1.3-1-2c0-0.5,0.1-1.1,0.2-1.6c0.2-0.6,0.4-1.1,0.7-1.5
		s0.7-0.8,1.1-1.1c0.4-0.3,0.9-0.4,1.5-0.4c0.3,0,0.6,0.2,0.9,0.5c0.3,0.3,0.5,0.7,0.8,1.2s0.6,1,0.9,1.6c0.3,0.6,0.8,1.1,1.3,1.6
		s1.2,0.9,2,1.2c0.8,0.3,1.8,0.5,2.9,0.5c1.5,0,2.9-0.3,4-0.9c1.2-0.6,2.2-1.5,3-2.5c0.8-1.1,1.5-2.4,2.1-3.8c0.6-1.5,1-3,1.3-4.7
		s0.6-3.4,0.7-5.3s0.2-3.7,0.2-5.5V45h-8.3v-3.2h8.3v-5.3c0-2.6,0.3-4.9,1-6.9c0.6-2,1.5-3.6,2.6-5s2.3-2.5,3.6-3.4s2.7-1.6,4.1-2.1
		c1.4-0.5,2.7-0.9,4.1-1c1.3-0.2,2.5-0.3,3.5-0.3c2.1,0,4,0.2,5.7,0.5c1.6,0.3,3,0.7,4.1,1.3c1.1,0.5,1.9,1.1,2.5,1.8
		c0.6,0.7,0.9,1.4,0.9,2.1c0,0.5-0.1,1.1-0.2,1.6c-0.2,0.6-0.4,1.1-0.7,1.5c-0.3,0.5-0.7,0.8-1.1,1.1c-0.4,0.3-0.9,0.4-1.5,0.4
		c-0.3,0-0.6-0.2-0.9-0.5s-0.6-0.8-0.9-1.3c-0.3-0.5-0.6-1.1-1-1.8s-0.8-1.2-1.3-1.8c-0.5-0.5-1.1-1-1.9-1.3S186.8,20.9,185.8,20.9z
		"/>
</g>
<g class="st0">
	<path class="st1" d="M78.1,105.9c-0.8,0-1.8,0.2-2.8,0.5c-1.1,0.3-2.2,1-3.3,1.9c-1.1,0.9-2.2,2.2-3.3,3.8c-1.1,1.6-2,3.8-2.9,6.4
		s-1.5,5.8-2.1,9.5c-0.5,3.7-0.8,8.2-0.8,13.3c0,4.9,0.3,9.1,0.8,12.6c0.5,3.6,1.2,6.6,2.1,9.1s1.9,4.5,3,6.1s2.3,2.8,3.6,3.7
		c1.3,0.9,2.5,1.5,3.8,1.8s2.4,0.5,3.5,0.5c1.2,0,2.4-0.2,3.5-0.4c1.2-0.3,2.4-0.7,3.5-1.3c1.2-0.6,2.3-1.3,3.3-2.1
		c1.1-0.8,2-1.7,2.9-2.8l2,2c-0.9,1.1-2,2.2-3.2,3.4c-1.3,1.2-2.7,2.2-4.4,3.1s-3.5,1.7-5.6,2.3s-4.4,0.9-6.9,0.9
		c-3.9,0-7.6-0.7-10.9-2.2c-3.4-1.5-6.3-3.8-8.8-7s-4.5-7.2-5.9-12.2c-1.4-4.9-2.1-10.9-2.1-17.7c0-6.5,0.7-12.1,2.2-17
		c1.5-4.9,3.5-9,6.1-12.2c2.6-3.3,5.6-5.8,9.1-7.4c3.5-1.7,7.2-2.5,11.1-2.5c2.6,0,5,0.2,7.1,0.7s4,1.2,5.5,2.2
		c1.6,0.9,2.8,2.1,3.6,3.5s1.3,3,1.3,4.7c0,0.8-0.1,1.7-0.4,2.5c-0.3,0.9-0.7,1.7-1.2,2.4c-0.6,0.7-1.2,1.3-2,1.8s-1.8,0.7-2.8,0.7
		s-1.7-0.2-2.2-0.6s-0.9-1-1.2-1.7c-0.3-0.7-0.4-1.5-0.5-2.4s-0.1-1.8-0.2-2.7c0-0.9-0.1-1.8-0.2-2.7c-0.1-0.9-0.3-1.7-0.6-2.4
		c-0.3-0.7-0.8-1.2-1.4-1.7C80,106.1,79.2,105.9,78.1,105.9z"/>
	<path class="st1" d="M113.3,165.3c0,0.4-0.1,0.9-0.2,1.4s-0.4,1-0.9,1.5s-1.2,0.9-2.2,1.2s-2.2,0.5-3.8,0.5c-1.6,0-2.8-0.2-3.7-0.6
		s-1.6-0.8-2-1.3s-0.7-1-0.8-1.6c-0.1-0.5-0.2-1-0.2-1.3v-57.9c0-0.9-0.2-1.6-0.6-2.3c-0.4-0.6-1.1-1-2-1c-0.5,0-1,0.1-1.3,0.2
		c-0.4,0.2-0.8,0.4-1.2,0.7l-0.9-1.1c0.7-0.6,1.5-1.1,2.3-1.7s1.8-1,2.8-1.5c1-0.4,2.1-0.8,3.2-1c1.1-0.3,2.3-0.4,3.6-0.4
		c1.9,0,3.5,0.3,4.5,0.8c1.1,0.5,1.9,1.2,2.4,1.9c0.5,0.8,0.8,1.6,0.9,2.4c0.1,0.9,0.2,1.6,0.2,2.3v58.8H113.3z"/>
	<path class="st1" d="M138.9,165.2c0,0.4-0.1,0.9-0.2,1.4c-0.1,0.6-0.4,1.1-0.9,1.6s-1.2,0.9-2.1,1.3c-0.9,0.3-2.2,0.5-3.8,0.5
		s-2.8-0.2-3.7-0.6s-1.6-0.8-2-1.3s-0.7-1-0.8-1.6c-0.1-0.5-0.2-1-0.2-1.3v-34.7c0-0.9-0.2-1.6-0.6-2.3c-0.4-0.6-1.1-1-2-1
		c-0.5,0-0.9,0.1-1.3,0.3s-0.7,0.4-1.2,0.8l-0.9-1.1c0.7-0.6,1.5-1.1,2.3-1.7c0.9-0.6,1.8-1,2.8-1.5c1-0.4,2.1-0.8,3.2-1
		c1.1-0.3,2.3-0.4,3.6-0.4c1.9,0,3.5,0.3,4.5,0.8c1.1,0.5,1.9,1.2,2.4,1.9c0.5,0.8,0.8,1.6,0.9,2.4c0.1,0.9,0.2,1.6,0.2,2.3v35.2
		H138.9z M123.7,112.3c0-0.8,0.2-1.6,0.6-2.4s0.9-1.4,1.6-2s1.5-1,2.3-1.3c0.9-0.3,1.8-0.5,2.9-0.5c1,0,2,0.2,2.9,0.5
		s1.7,0.8,2.3,1.3c0.7,0.6,1.2,1.2,1.5,2c0.4,0.8,0.6,1.6,0.6,2.4c0,0.9-0.2,1.7-0.6,2.4c-0.4,0.7-0.9,1.4-1.5,2
		c-0.7,0.6-1.4,1-2.3,1.3c-0.9,0.3-1.8,0.5-2.9,0.5c-1,0-2-0.2-2.9-0.5c-0.9-0.3-1.7-0.8-2.3-1.3c-0.7-0.6-1.2-1.2-1.6-2
		C123.9,114,123.7,113.2,123.7,112.3z"/>
	<path class="st1" d="M150.8,130.5c0-0.9-0.2-1.6-0.6-2.3c-0.4-0.6-1.1-1-2-1c-0.5,0-0.9,0.1-1.3,0.3s-0.7,0.4-1.2,0.8l-0.9-1.1
		c0.7-0.6,1.5-1.1,2.3-1.7c0.9-0.6,1.8-1,2.8-1.5c1-0.4,2.1-0.8,3.2-1c1.1-0.3,2.3-0.4,3.6-0.4s2.5,0.2,3.5,0.6s1.8,0.9,2.4,1.5
		c0.6,0.6,1.1,1.2,1.5,1.8c0.3,0.6,0.5,1.2,0.6,1.6c0.6-0.8,1.3-1.6,2.1-2.3c0.8-0.7,1.7-1.3,2.7-1.8s2-0.9,3.1-1.1
		c1.1-0.3,2.2-0.4,3.4-0.4c2.4,0,4.6,0.5,6.5,1.5s3.6,2.5,5,4.4s2.5,4.4,3.2,7.2c0.7,2.9,1.1,6.2,1.1,10c0,4.4-0.5,8.1-1.4,11.2
		c-0.9,3.1-2.1,5.6-3.6,7.5s-3.2,3.4-5.1,4.2c-1.9,0.9-3.8,1.3-5.8,1.3c-1.6,0-3.1-0.2-4.3-0.5s-2.3-0.7-3.2-1.2s-1.6-1-2.2-1.5
		c-0.6-0.5-1.1-0.9-1.4-1.2v21.9c0,0.4-0.1,0.9-0.2,1.4c-0.1,0.5-0.4,1.1-0.9,1.5c-0.5,0.5-1.2,0.9-2.1,1.3
		c-0.9,0.4-2.2,0.5-3.8,0.5s-2.8-0.2-3.8-0.6c-0.9-0.4-1.6-0.8-2.1-1.3s-0.8-1-0.9-1.6c-0.1-0.5-0.2-1-0.2-1.3L150.8,130.5
		L150.8,130.5z M164.6,159.1c0,0.2,0.1,0.7,0.3,1.3s0.5,1.2,1,1.8s1,1.2,1.7,1.7s1.6,0.7,2.6,0.7c1.3,0,2.4-0.5,3.4-1.5
		c0.9-1,1.7-2.4,2.3-4.1c0.6-1.7,1-3.7,1.3-6s0.4-4.7,0.4-7.3c0-3.2-0.2-5.9-0.5-8.1c-0.3-2.2-0.8-4-1.5-5.4s-1.4-2.4-2.4-3
		c-0.9-0.6-1.9-0.9-3.1-0.9c-0.7,0-1.3,0.2-2,0.6c-0.7,0.4-1.3,0.8-1.8,1.4c-0.5,0.6-1,1.2-1.3,1.9s-0.5,1.3-0.5,2v24.9H164.6z"/>
	<path class="st1" d="M214.6,126.2c-0.7,0-1.3,0.1-2,0.3c-0.6,0.2-1.2,0.5-1.6,0.9c-0.5,0.4-0.9,0.9-1.1,1.5
		c-0.3,0.6-0.4,1.3-0.4,2.2c0,1.2,0.4,2.3,1.3,3.5c0.9,1.2,1.9,2.4,3.2,3.6c1.3,1.2,2.7,2.5,4.1,3.9c1.5,1.3,2.9,2.7,4.1,4.2
		c1.3,1.5,2.3,3.1,3.2,4.7c0.9,1.7,1.3,3.5,1.3,5.4c0,2.2-0.4,4.1-1.1,5.8c-0.7,1.7-1.8,3.1-3.1,4.3c-1.4,1.2-3,2.1-4.9,2.7
		s-4.1,0.9-6.4,0.9c-2.1,0-3.9-0.3-5.6-0.9c-1.7-0.6-3.2-1.3-4.5-2.2s-2.4-1.8-3.3-2.7c-0.9-1-1.6-1.8-2.2-2.6l1.6-1.1
		c0.4,0.4,0.9,0.9,1.5,1.5c0.6,0.5,1.3,1,2,1.5c0.7,0.4,1.5,0.8,2.4,1.1c0.8,0.3,1.7,0.4,2.6,0.4c2.2,0,3.9-0.5,5.3-1.5
		c1.4-1,2.1-2.6,2.1-4.6c0-1.1-0.4-2.3-1.1-3.5c-0.7-1.2-1.7-2.5-2.8-3.8s-2.4-2.6-3.7-4s-2.5-2.8-3.7-4.3c-1.1-1.5-2.1-3-2.8-4.5
		c-0.7-1.6-1.1-3.2-1.1-4.9c0-1.9,0.4-3.5,1.1-4.9c0.8-1.4,1.8-2.6,3.1-3.5s2.7-1.6,4.4-2.1c1.6-0.5,3.3-0.7,5.1-0.7
		c2,0,3.8,0.2,5.5,0.5c1.6,0.4,3.1,0.9,4.2,1.6c1.2,0.7,2.1,1.7,2.7,2.8c0.6,1.1,1,2.4,1,3.9c0,1.1-0.4,2.1-1.1,3
		c-0.7,0.8-1.8,1.3-3.1,1.3s-2.3-0.3-2.9-0.8c-0.7-0.6-1-1.3-1-2.3c0-0.6,0.2-1.1,0.5-1.5s0.7-0.7,1.1-0.9c0.4-0.2,0.7-0.4,1.1-0.6
		c0.3-0.2,0.5-0.4,0.5-0.7c0-0.8-0.4-1.5-1.3-2S216,126.2,214.6,126.2z"/>
</g>
</svg>
